<?xml version="1.0" encoding="iso-8859-1"?>
<!-- Uploaded to: SVG Repo, www.svgrepo.com, Generator: SVG Repo Mixer Tools -->
<svg height="800px" width="800px" version="1.1" id="Layer_1" xmlns="http://www.w3.org/2000/svg" xmlns:xlink="http://www.w3.org/1999/xlink" 
	 viewBox="0 0 512 512" xml:space="preserve">
<circle style="fill:#F8F8F9;" cx="256" cy="256" r="256"/>
<path style="fill:#EDEDED;" d="M256,0v512c141.385,0,256-114.615,256-256S397.385,0,256,0z"/>
<g>
	<path style="fill:#D7FA84;" d="M160,256c0-70.77-46.189-130.945-110.001-151.99C18.583,146.518,0,199.085,0,256
		s18.583,109.482,49.999,151.99C113.811,386.945,160,326.77,160,256z"/>
	<path style="fill:#D7FA84;" d="M313.6,256c0-82.148,50.185-152.79,121.505-182.89C388.934,27.891,325.731,0,256,0
		S123.064,27.891,76.896,73.11C148.215,103.21,198.4,173.852,198.4,256S148.215,408.79,76.896,438.89
		C123.064,484.109,186.269,512,256,512s132.934-27.891,179.105-73.11C363.785,408.79,313.6,338.148,313.6,256z"/>
	<path style="fill:#D7FA84;" d="M462.002,104.01C398.19,125.055,352,185.23,352,256s46.19,130.945,110.002,151.99
		C493.416,365.482,512,312.915,512,256S493.416,146.518,462.002,104.01z"/>
</g>
<g>
	<path style="fill:#CBF966;" d="M313.6,256c0-82.148,50.185-152.79,121.505-182.89C388.934,27.891,325.731,0,256,0v512
		c69.731,0,132.934-27.891,179.105-73.11C363.785,408.79,313.6,338.148,313.6,256z"/>
	<path style="fill:#CBF966;" d="M462.002,104.01C398.19,125.055,352,185.23,352,256s46.19,130.945,110.002,151.99
		C493.416,365.482,512,312.915,512,256S493.416,146.518,462.002,104.01z"/>
</g>
</svg>